<?xml version="1.0" encoding="UTF-8" standalone="no"?>
<!DOCTYPE svg PUBLIC "-//W3C//DTD SVG 1.1//EN" "http://www.w3.org/Graphics/SVG/1.1/DTD/svg11.dtd">
<svg width="100%" height="100%" viewBox="0 0 3000 3000" version="1.1" xmlns="http://www.w3.org/2000/svg" xmlns:xlink="http://www.w3.org/1999/xlink" xml:space="preserve" xmlns:serif="http://www.serif.com/" style="fill-rule:evenodd;clip-rule:evenodd;stroke-linecap:round;stroke-linejoin:round;stroke-miterlimit:1.5;">
    <g transform="matrix(1,0,0,1,-58.8457,0)">
        <g transform="matrix(1.28625,0,0,1.28625,-434.493,-814.953)">
            <path d="M1558.85,1300.24L1558.85,1800L1558.85,1300.24ZM1126.04,1550.12L1558.85,1800L1126.04,1550.12ZM1126.04,2049.88L1558.85,1800L1126.04,2049.88ZM1558.85,2299.76L1558.85,1800L1558.85,2299.76ZM1991.65,2049.88L1558.85,1800L1991.65,2049.88ZM1991.65,1550.12L1558.85,1800L1991.65,1550.12Z" style="fill:none;stroke:white;stroke-width:16.2px;"/>
        </g>
        <g transform="matrix(1.38046,0,0,1.40865,-500.124,1247.04)">
            <circle cx="1500" cy="900" r="150" style="fill:rgb(2,255,255);"/>
        </g>
        <g transform="matrix(0.690232,1.19552,-1.21992,0.704323,754.29,-419.753)">
            <circle cx="1500" cy="900" r="150" style="fill:rgb(2,2,255);"/>
        </g>
        <g transform="matrix(-0.690232,1.19552,-1.21992,-0.704323,2824.99,-166.797)">
            <circle cx="1500" cy="900" r="150" style="fill:rgb(255,2,255);"/>
        </g>
        <g transform="matrix(-1.19552,0.690232,-0.704323,-1.21992,3490.32,683.719)">
            <circle cx="1500" cy="900" r="150" style="fill:rgb(255,2,128);"/>
        </g>
        <g transform="matrix(-1.19552,-0.690232,0.704323,-1.21992,3237.37,2754.41)">
            <circle cx="1500" cy="900" r="150" style="fill:rgb(255,128,2);"/>
        </g>
        <g transform="matrix(1.21382e-15,-1.38046,1.40865,1.28522e-15,1317.61,3570.7)">
            <circle cx="1500" cy="900" r="150" style="fill:rgb(128,255,2);"/>
        </g>
        <g transform="matrix(1.38046,0,0,1.40865,-500.124,-782.015)">
            <circle cx="1500" cy="900" r="150" style="fill:rgb(255,0,0);"/>
        </g>
        <g transform="matrix(0.690232,1.19552,-1.21992,0.704323,2511.51,-1434.28)">
            <circle cx="1500" cy="900" r="150" style="fill:rgb(255,255,2);"/>
        </g>
        <g transform="matrix(-0.690232,1.19552,-1.21992,-0.704323,4582.2,847.733)">
            <circle cx="1500" cy="900" r="150" style="fill:rgb(2,255,2);"/>
        </g>
        <g transform="matrix(-1.19552,0.690232,-0.704323,-1.21992,4504.85,2440.94)">
            <circle cx="1500" cy="900" r="150" style="fill:rgb(2,255,128);"/>
        </g>
        <g transform="matrix(-1.19552,-0.690232,0.704323,-1.21992,2222.84,4511.63)">
            <circle cx="1500" cy="900" r="150" style="fill:rgb(2,128,255);"/>
        </g>
        <g transform="matrix(1.21382e-15,-1.38046,1.40865,1.28522e-15,-711.444,3570.7)">
            <circle cx="1500" cy="900" r="150" style="fill:rgb(128,2,255);"/>
        </g>
        <g transform="matrix(1.28625,0,0,1.28625,-437.771,-824.288)">
            <g transform="matrix(94.0543,0,0,94.0543,1473.91,787.254)">
                <path d="M0.147,-0.547L0.229,-0.547L0.238,-0.44C0.253,-0.478 0.276,-0.508 0.307,-0.529C0.338,-0.55 0.375,-0.56 0.417,-0.56C0.438,-0.56 0.459,-0.557 0.479,-0.552C0.499,-0.546 0.518,-0.538 0.535,-0.526L0.535,-0.434C0.516,-0.449 0.497,-0.46 0.476,-0.467C0.456,-0.474 0.434,-0.477 0.41,-0.477C0.355,-0.477 0.312,-0.459 0.282,-0.424C0.253,-0.39 0.238,-0.339 0.238,-0.272L0.238,-0L0.147,-0L0.147,-0.547Z" style="fill:white;fill-rule:nonzero;"/>
            </g>
            <g transform="matrix(94.0543,0,0,94.0543,1530.53,787.254)">
                <path d="M0.331,0.014C0.246,0.014 0.18,-0.011 0.132,-0.062C0.084,-0.113 0.061,-0.183 0.061,-0.272C0.061,-0.318 0.067,-0.359 0.079,-0.393C0.091,-0.428 0.109,-0.458 0.13,-0.482C0.154,-0.508 0.182,-0.528 0.214,-0.541C0.246,-0.554 0.28,-0.56 0.317,-0.56C0.388,-0.56 0.444,-0.537 0.484,-0.49C0.524,-0.443 0.543,-0.379 0.543,-0.296L0.543,-0.252L0.154,-0.252L0.154,-0.249C0.154,-0.19 0.17,-0.144 0.201,-0.111C0.216,-0.095 0.234,-0.083 0.256,-0.075C0.277,-0.066 0.302,-0.062 0.332,-0.062C0.362,-0.062 0.392,-0.067 0.422,-0.076C0.438,-0.08 0.455,-0.086 0.471,-0.093C0.488,-0.1 0.505,-0.108 0.522,-0.117L0.522,-0.028C0.489,-0.014 0.456,-0.004 0.424,0.004C0.408,0.007 0.393,0.01 0.377,0.012C0.361,0.013 0.346,0.014 0.331,0.014ZM0.454,-0.322C0.453,-0.35 0.449,-0.374 0.443,-0.394C0.436,-0.414 0.427,-0.431 0.417,-0.443C0.393,-0.47 0.359,-0.484 0.315,-0.484C0.271,-0.484 0.235,-0.47 0.208,-0.441C0.18,-0.412 0.163,-0.373 0.158,-0.322L0.454,-0.322Z" style="fill:white;fill-rule:nonzero;"/>
            </g>
            <g transform="matrix(94.0543,0,0,94.0543,1587.16,787.254)">
                <path d="M0.273,0.014C0.238,0.014 0.208,0.007 0.182,-0.006C0.156,-0.02 0.134,-0.039 0.117,-0.063C0.079,-0.114 0.06,-0.185 0.06,-0.274C0.06,-0.363 0.079,-0.433 0.117,-0.484C0.156,-0.535 0.208,-0.56 0.273,-0.56C0.306,-0.56 0.335,-0.553 0.36,-0.539C0.385,-0.525 0.405,-0.504 0.419,-0.477L0.419,-0.76L0.509,-0.76L0.509,-0L0.428,-0L0.419,-0.069C0.411,-0.056 0.403,-0.044 0.394,-0.034C0.384,-0.024 0.373,-0.015 0.359,-0.007C0.334,0.007 0.306,0.014 0.273,0.014ZM0.286,-0.062C0.33,-0.062 0.363,-0.08 0.385,-0.116C0.408,-0.151 0.419,-0.204 0.419,-0.273C0.419,-0.342 0.408,-0.395 0.385,-0.431C0.375,-0.447 0.361,-0.46 0.345,-0.47C0.329,-0.479 0.309,-0.484 0.286,-0.484C0.243,-0.484 0.21,-0.466 0.188,-0.431C0.166,-0.395 0.155,-0.342 0.155,-0.273C0.155,-0.204 0.166,-0.151 0.188,-0.115C0.199,-0.097 0.213,-0.083 0.23,-0.075C0.247,-0.066 0.265,-0.062 0.286,-0.062Z" style="fill:white;fill-rule:nonzero;"/>
            </g>
        </g>
        <g transform="matrix(0.643125,1.11392,-1.11392,0.643125,2579.29,-1401.42)">
            <g transform="matrix(94.0543,0,0,94.0543,1388.97,787.254)">
                <path d="M0.09,0.133L0.143,0.133C0.158,0.133 0.17,0.131 0.18,0.126C0.19,0.122 0.199,0.116 0.205,0.11C0.212,0.102 0.22,0.09 0.229,0.071C0.239,0.053 0.25,0.026 0.262,-0.009L0.051,-0.547L0.146,-0.547L0.308,-0.119L0.468,-0.547L0.563,-0.547L0.419,-0.176C0.41,-0.152 0.403,-0.134 0.398,-0.122C0.393,-0.11 0.39,-0.101 0.388,-0.096C0.385,-0.09 0.384,-0.085 0.382,-0.081C0.381,-0.077 0.378,-0.071 0.375,-0.063C0.373,-0.055 0.368,-0.043 0.362,-0.025C0.349,0.01 0.338,0.038 0.33,0.058C0.321,0.079 0.314,0.095 0.309,0.106C0.304,0.117 0.3,0.125 0.297,0.131C0.29,0.143 0.282,0.154 0.273,0.164C0.264,0.173 0.253,0.182 0.241,0.189C0.218,0.202 0.192,0.208 0.162,0.208L0.09,0.208L0.09,0.133Z" style="fill:white;fill-rule:nonzero;"/>
            </g>
            <g transform="matrix(94.0543,0,0,94.0543,1445.59,787.254)">
                <path d="M0.331,0.014C0.246,0.014 0.18,-0.011 0.132,-0.062C0.084,-0.113 0.061,-0.183 0.061,-0.272C0.061,-0.318 0.067,-0.359 0.079,-0.393C0.091,-0.428 0.109,-0.458 0.13,-0.482C0.154,-0.508 0.182,-0.528 0.214,-0.541C0.246,-0.554 0.28,-0.56 0.317,-0.56C0.388,-0.56 0.444,-0.537 0.484,-0.49C0.524,-0.443 0.543,-0.379 0.543,-0.296L0.543,-0.252L0.154,-0.252L0.154,-0.249C0.154,-0.19 0.17,-0.144 0.201,-0.111C0.216,-0.095 0.234,-0.083 0.256,-0.075C0.277,-0.066 0.302,-0.062 0.332,-0.062C0.362,-0.062 0.392,-0.067 0.422,-0.076C0.438,-0.08 0.455,-0.086 0.471,-0.093C0.488,-0.1 0.505,-0.108 0.522,-0.117L0.522,-0.028C0.489,-0.014 0.456,-0.004 0.424,0.004C0.408,0.007 0.393,0.01 0.377,0.012C0.361,0.013 0.346,0.014 0.331,0.014ZM0.454,-0.322C0.453,-0.35 0.449,-0.374 0.443,-0.394C0.436,-0.414 0.427,-0.431 0.417,-0.443C0.393,-0.47 0.359,-0.484 0.315,-0.484C0.271,-0.484 0.235,-0.47 0.208,-0.441C0.18,-0.412 0.163,-0.373 0.158,-0.322L0.454,-0.322Z" style="fill:white;fill-rule:nonzero;"/>
            </g>
            <g transform="matrix(94.0543,0,0,94.0543,1502.22,787.254)">
                <path d="M0.401,0.004C0.375,0.004 0.351,-0 0.331,-0.008C0.31,-0.016 0.292,-0.03 0.276,-0.048C0.247,-0.082 0.232,-0.131 0.232,-0.194L0.232,-0.689L0.088,-0.689L0.088,-0.76L0.322,-0.76L0.322,-0.194C0.322,-0.153 0.329,-0.123 0.344,-0.103C0.359,-0.083 0.381,-0.072 0.41,-0.072L0.515,-0.072L0.515,0.004L0.401,0.004Z" style="fill:white;fill-rule:nonzero;"/>
            </g>
            <g transform="matrix(94.0543,0,0,94.0543,1558.85,787.254)">
                <path d="M0.401,0.004C0.375,0.004 0.351,-0 0.331,-0.008C0.31,-0.016 0.292,-0.03 0.276,-0.048C0.247,-0.082 0.232,-0.131 0.232,-0.194L0.232,-0.689L0.088,-0.689L0.088,-0.76L0.322,-0.76L0.322,-0.194C0.322,-0.153 0.329,-0.123 0.344,-0.103C0.359,-0.083 0.381,-0.072 0.41,-0.072L0.515,-0.072L0.515,0.004L0.401,0.004Z" style="fill:white;fill-rule:nonzero;"/>
            </g>
            <g transform="matrix(94.0543,0,0,94.0543,1615.47,787.254)">
                <path d="M0.301,0.014C0.225,0.014 0.167,-0.01 0.127,-0.059C0.106,-0.084 0.091,-0.115 0.082,-0.151C0.072,-0.187 0.067,-0.228 0.067,-0.273C0.067,-0.366 0.087,-0.437 0.127,-0.486C0.167,-0.535 0.225,-0.56 0.301,-0.56C0.377,-0.56 0.435,-0.535 0.475,-0.486C0.515,-0.437 0.535,-0.366 0.535,-0.274C0.535,-0.179 0.515,-0.107 0.475,-0.059C0.436,-0.01 0.378,0.014 0.301,0.014ZM0.301,-0.062C0.347,-0.062 0.381,-0.08 0.405,-0.116C0.428,-0.151 0.44,-0.204 0.44,-0.273C0.44,-0.342 0.428,-0.395 0.405,-0.431C0.381,-0.466 0.347,-0.484 0.301,-0.484C0.255,-0.484 0.221,-0.466 0.197,-0.431C0.174,-0.395 0.162,-0.342 0.162,-0.273C0.162,-0.204 0.174,-0.151 0.197,-0.116C0.221,-0.08 0.255,-0.062 0.301,-0.062Z" style="fill:white;fill-rule:nonzero;"/>
            </g>
            <g transform="matrix(94.0543,0,0,94.0543,1672.1,787.254)">
                <path d="M0,-0.547L0.089,-0.547L0.184,-0.105L0.262,-0.387L0.339,-0.387L0.418,-0.105L0.513,-0.547L0.602,-0.547L0.474,-0L0.388,-0L0.301,-0.3L0.214,-0L0.128,-0L0,-0.547Z" style="fill:white;fill-rule:nonzero;"/>
            </g>
        </g>
        <g transform="matrix(0.643125,-1.11392,1.11392,0.643125,884.303,3418.66)">
            <g transform="matrix(94.0543,0,0,94.0543,1417.28,787.254)">
                <path d="M0.293,0.215C0.281,0.215 0.268,0.214 0.255,0.213C0.243,0.212 0.229,0.21 0.216,0.208C0.19,0.204 0.163,0.197 0.135,0.188L0.135,0.099C0.151,0.107 0.166,0.113 0.181,0.119C0.196,0.124 0.209,0.129 0.222,0.132C0.246,0.139 0.271,0.143 0.295,0.143C0.342,0.143 0.377,0.13 0.399,0.103C0.422,0.077 0.433,0.035 0.433,-0.022L0.433,-0.087C0.418,-0.056 0.399,-0.034 0.374,-0.019C0.349,-0.004 0.319,0.004 0.284,0.004C0.22,0.004 0.169,-0.022 0.131,-0.073C0.093,-0.124 0.074,-0.192 0.074,-0.278C0.074,-0.363 0.093,-0.432 0.131,-0.483C0.169,-0.535 0.221,-0.56 0.285,-0.56C0.319,-0.56 0.348,-0.553 0.373,-0.539C0.397,-0.525 0.417,-0.504 0.433,-0.474L0.441,-0.545L0.522,-0.545L0.522,-0.035C0.522,0.047 0.503,0.109 0.464,0.151C0.426,0.194 0.369,0.215 0.293,0.215ZM0.304,-0.071C0.346,-0.071 0.378,-0.089 0.4,-0.124C0.422,-0.16 0.433,-0.211 0.433,-0.278C0.433,-0.346 0.422,-0.397 0.4,-0.432C0.389,-0.45 0.375,-0.464 0.358,-0.472C0.342,-0.48 0.323,-0.484 0.303,-0.484C0.26,-0.484 0.226,-0.466 0.203,-0.432C0.18,-0.397 0.168,-0.345 0.168,-0.277C0.168,-0.211 0.18,-0.16 0.204,-0.124C0.227,-0.089 0.26,-0.071 0.304,-0.071Z" style="fill:white;fill-rule:nonzero;"/>
            </g>
            <g transform="matrix(94.0543,0,0,94.0543,1473.91,787.254)">
                <path d="M0.147,-0.547L0.229,-0.547L0.238,-0.44C0.253,-0.478 0.276,-0.508 0.307,-0.529C0.338,-0.55 0.375,-0.56 0.417,-0.56C0.438,-0.56 0.459,-0.557 0.479,-0.552C0.499,-0.546 0.518,-0.538 0.535,-0.526L0.535,-0.434C0.516,-0.449 0.497,-0.46 0.476,-0.467C0.456,-0.474 0.434,-0.477 0.41,-0.477C0.355,-0.477 0.312,-0.459 0.282,-0.424C0.253,-0.39 0.238,-0.339 0.238,-0.272L0.238,-0L0.147,-0L0.147,-0.547Z" style="fill:white;fill-rule:nonzero;"/>
            </g>
            <g transform="matrix(94.0543,0,0,94.0543,1530.53,787.254)">
                <path d="M0.331,0.014C0.246,0.014 0.18,-0.011 0.132,-0.062C0.084,-0.113 0.061,-0.183 0.061,-0.272C0.061,-0.318 0.067,-0.359 0.079,-0.393C0.091,-0.428 0.109,-0.458 0.13,-0.482C0.154,-0.508 0.182,-0.528 0.214,-0.541C0.246,-0.554 0.28,-0.56 0.317,-0.56C0.388,-0.56 0.444,-0.537 0.484,-0.49C0.524,-0.443 0.543,-0.379 0.543,-0.296L0.543,-0.252L0.154,-0.252L0.154,-0.249C0.154,-0.19 0.17,-0.144 0.201,-0.111C0.216,-0.095 0.234,-0.083 0.256,-0.075C0.277,-0.066 0.302,-0.062 0.332,-0.062C0.362,-0.062 0.392,-0.067 0.422,-0.076C0.438,-0.08 0.455,-0.086 0.471,-0.093C0.488,-0.1 0.505,-0.108 0.522,-0.117L0.522,-0.028C0.489,-0.014 0.456,-0.004 0.424,0.004C0.408,0.007 0.393,0.01 0.377,0.012C0.361,0.013 0.346,0.014 0.331,0.014ZM0.454,-0.322C0.453,-0.35 0.449,-0.374 0.443,-0.394C0.436,-0.414 0.427,-0.431 0.417,-0.443C0.393,-0.47 0.359,-0.484 0.315,-0.484C0.271,-0.484 0.235,-0.47 0.208,-0.441C0.18,-0.412 0.163,-0.373 0.158,-0.322L0.454,-0.322Z" style="fill:white;fill-rule:nonzero;"/>
            </g>
            <g transform="matrix(94.0543,0,0,94.0543,1587.16,787.254)">
                <path d="M0.331,0.014C0.246,0.014 0.18,-0.011 0.132,-0.062C0.084,-0.113 0.061,-0.183 0.061,-0.272C0.061,-0.318 0.067,-0.359 0.079,-0.393C0.091,-0.428 0.109,-0.458 0.13,-0.482C0.154,-0.508 0.182,-0.528 0.214,-0.541C0.246,-0.554 0.28,-0.56 0.317,-0.56C0.388,-0.56 0.444,-0.537 0.484,-0.49C0.524,-0.443 0.543,-0.379 0.543,-0.296L0.543,-0.252L0.154,-0.252L0.154,-0.249C0.154,-0.19 0.17,-0.144 0.201,-0.111C0.216,-0.095 0.234,-0.083 0.256,-0.075C0.277,-0.066 0.302,-0.062 0.332,-0.062C0.362,-0.062 0.392,-0.067 0.422,-0.076C0.438,-0.08 0.455,-0.086 0.471,-0.093C0.488,-0.1 0.505,-0.108 0.522,-0.117L0.522,-0.028C0.489,-0.014 0.456,-0.004 0.424,0.004C0.408,0.007 0.393,0.01 0.377,0.012C0.361,0.013 0.346,0.014 0.331,0.014ZM0.454,-0.322C0.453,-0.35 0.449,-0.374 0.443,-0.394C0.436,-0.414 0.427,-0.431 0.417,-0.443C0.393,-0.47 0.359,-0.484 0.315,-0.484C0.271,-0.484 0.235,-0.47 0.208,-0.441C0.18,-0.412 0.163,-0.373 0.158,-0.322L0.454,-0.322Z" style="fill:white;fill-rule:nonzero;"/>
            </g>
            <g transform="matrix(94.0543,0,0,94.0543,1643.78,787.254)">
                <path d="M0.095,-0.547L0.176,-0.547L0.185,-0.465C0.218,-0.528 0.272,-0.56 0.347,-0.56C0.376,-0.56 0.401,-0.555 0.421,-0.546C0.442,-0.536 0.459,-0.523 0.472,-0.505C0.5,-0.469 0.513,-0.413 0.513,-0.339L0.513,-0L0.423,-0L0.423,-0.339C0.423,-0.388 0.414,-0.424 0.397,-0.447C0.38,-0.47 0.353,-0.482 0.315,-0.482C0.273,-0.482 0.241,-0.467 0.219,-0.438C0.196,-0.408 0.185,-0.365 0.185,-0.309L0.185,-0L0.095,-0L0.095,-0.547Z" style="fill:white;fill-rule:nonzero;"/>
            </g>
        </g>
        <g transform="matrix(1.11392,-0.643125,0.643125,1.11392,16.9175,2818.47)">
            <g transform="matrix(94.0543,0,0,94.0543,1388.97,787.254)">
                <path d="M0.288,0.014C0.258,0.014 0.229,0.011 0.2,0.006C0.188,0.003 0.173,-0 0.156,-0.005C0.138,-0.009 0.121,-0.014 0.104,-0.02L0.104,-0.113C0.125,-0.102 0.143,-0.094 0.157,-0.089C0.172,-0.083 0.186,-0.078 0.2,-0.074C0.215,-0.07 0.23,-0.067 0.244,-0.064C0.258,-0.062 0.272,-0.061 0.287,-0.061C0.326,-0.061 0.357,-0.069 0.379,-0.085C0.391,-0.094 0.399,-0.104 0.404,-0.115C0.41,-0.127 0.412,-0.138 0.412,-0.15C0.412,-0.173 0.403,-0.191 0.383,-0.205C0.364,-0.219 0.334,-0.231 0.292,-0.239L0.289,-0.24L0.255,-0.247C0.23,-0.252 0.209,-0.258 0.19,-0.267C0.171,-0.275 0.155,-0.285 0.142,-0.298C0.118,-0.322 0.106,-0.355 0.106,-0.396C0.106,-0.449 0.124,-0.49 0.159,-0.518C0.178,-0.533 0.2,-0.543 0.226,-0.55C0.251,-0.557 0.28,-0.56 0.312,-0.56C0.341,-0.56 0.369,-0.557 0.396,-0.552C0.408,-0.55 0.421,-0.546 0.434,-0.542C0.448,-0.538 0.461,-0.533 0.475,-0.528L0.475,-0.44C0.449,-0.455 0.424,-0.466 0.397,-0.474C0.371,-0.481 0.344,-0.485 0.316,-0.485C0.277,-0.485 0.247,-0.478 0.227,-0.465C0.207,-0.452 0.197,-0.432 0.197,-0.404C0.199,-0.392 0.201,-0.381 0.203,-0.373C0.205,-0.364 0.211,-0.357 0.219,-0.35C0.226,-0.344 0.239,-0.338 0.257,-0.333C0.274,-0.327 0.299,-0.321 0.331,-0.315L0.367,-0.308C0.413,-0.299 0.447,-0.282 0.469,-0.257C0.492,-0.233 0.503,-0.199 0.503,-0.158C0.503,-0.13 0.498,-0.105 0.488,-0.085C0.478,-0.064 0.464,-0.046 0.445,-0.032C0.425,-0.016 0.402,-0.005 0.376,0.003C0.349,0.01 0.32,0.014 0.288,0.014Z" style="fill:white;fill-rule:nonzero;"/>
            </g>
            <g transform="matrix(94.0543,0,0,94.0543,1445.59,787.254)">
                <path d="M0.093,-0.547L0.174,-0.547L0.183,-0.477C0.214,-0.532 0.263,-0.56 0.33,-0.56C0.395,-0.56 0.447,-0.534 0.485,-0.483C0.522,-0.432 0.541,-0.361 0.541,-0.272C0.541,-0.182 0.522,-0.112 0.484,-0.062C0.447,-0.011 0.395,0.014 0.329,0.014C0.311,0.014 0.294,0.012 0.281,0.009C0.267,0.005 0.254,-0 0.242,-0.007C0.217,-0.022 0.197,-0.042 0.183,-0.069L0.183,0.208L0.093,0.208L0.093,-0.547ZM0.316,-0.062C0.403,-0.062 0.447,-0.132 0.447,-0.273C0.447,-0.414 0.403,-0.484 0.316,-0.484C0.272,-0.484 0.239,-0.466 0.217,-0.431C0.194,-0.395 0.183,-0.342 0.183,-0.273C0.183,-0.204 0.194,-0.151 0.217,-0.116C0.239,-0.08 0.272,-0.062 0.316,-0.062Z" style="fill:white;fill-rule:nonzero;"/>
            </g>
            <g transform="matrix(94.0543,0,0,94.0543,1502.22,787.254)">
                <path d="M0.147,-0.547L0.229,-0.547L0.238,-0.44C0.253,-0.478 0.276,-0.508 0.307,-0.529C0.338,-0.55 0.375,-0.56 0.417,-0.56C0.438,-0.56 0.459,-0.557 0.479,-0.552C0.499,-0.546 0.518,-0.538 0.535,-0.526L0.535,-0.434C0.516,-0.449 0.497,-0.46 0.476,-0.467C0.456,-0.474 0.434,-0.477 0.41,-0.477C0.355,-0.477 0.312,-0.459 0.282,-0.424C0.253,-0.39 0.238,-0.339 0.238,-0.272L0.238,-0L0.147,-0L0.147,-0.547Z" style="fill:white;fill-rule:nonzero;"/>
            </g>
            <g transform="matrix(94.0543,0,0,94.0543,1558.85,787.254)">
                <path d="M0.255,-0.646C0.246,-0.646 0.241,-0.651 0.241,-0.661L0.241,-0.745C0.241,-0.755 0.246,-0.76 0.255,-0.76L0.326,-0.76C0.335,-0.76 0.34,-0.755 0.34,-0.745L0.34,-0.661C0.34,-0.651 0.335,-0.646 0.326,-0.646L0.255,-0.646ZM0.419,0.004C0.393,0.004 0.37,-0 0.349,-0.008C0.329,-0.016 0.311,-0.03 0.295,-0.048C0.265,-0.082 0.25,-0.131 0.25,-0.194L0.25,-0.477L0.131,-0.477L0.131,-0.547L0.34,-0.547L0.34,-0.194C0.34,-0.153 0.348,-0.123 0.363,-0.103C0.378,-0.083 0.4,-0.072 0.428,-0.072L0.533,-0.072L0.533,0.004L0.419,0.004Z" style="fill:white;fill-rule:nonzero;"/>
            </g>
            <g transform="matrix(94.0543,0,0,94.0543,1615.47,787.254)">
                <path d="M0.095,-0.547L0.176,-0.547L0.185,-0.465C0.218,-0.528 0.272,-0.56 0.347,-0.56C0.376,-0.56 0.401,-0.555 0.421,-0.546C0.442,-0.536 0.459,-0.523 0.472,-0.505C0.5,-0.469 0.513,-0.413 0.513,-0.339L0.513,-0L0.423,-0L0.423,-0.339C0.423,-0.388 0.414,-0.424 0.397,-0.447C0.38,-0.47 0.353,-0.482 0.315,-0.482C0.273,-0.482 0.241,-0.467 0.219,-0.438C0.196,-0.408 0.185,-0.365 0.185,-0.309L0.185,-0L0.095,-0L0.095,-0.547Z" style="fill:white;fill-rule:nonzero;"/>
            </g>
            <g transform="matrix(94.0543,0,0,94.0543,1672.1,787.254)">
                <path d="M0.293,0.215C0.281,0.215 0.268,0.214 0.255,0.213C0.243,0.212 0.229,0.21 0.216,0.208C0.19,0.204 0.163,0.197 0.135,0.188L0.135,0.099C0.151,0.107 0.166,0.113 0.181,0.119C0.196,0.124 0.209,0.129 0.222,0.132C0.246,0.139 0.271,0.143 0.295,0.143C0.342,0.143 0.377,0.13 0.399,0.103C0.422,0.077 0.433,0.035 0.433,-0.022L0.433,-0.087C0.418,-0.056 0.399,-0.034 0.374,-0.019C0.349,-0.004 0.319,0.004 0.284,0.004C0.22,0.004 0.169,-0.022 0.131,-0.073C0.093,-0.124 0.074,-0.192 0.074,-0.278C0.074,-0.363 0.093,-0.432 0.131,-0.483C0.169,-0.535 0.221,-0.56 0.285,-0.56C0.319,-0.56 0.348,-0.553 0.373,-0.539C0.397,-0.525 0.417,-0.504 0.433,-0.474L0.441,-0.545L0.522,-0.545L0.522,-0.035C0.522,0.047 0.503,0.109 0.464,0.151C0.426,0.194 0.369,0.215 0.293,0.215ZM0.304,-0.071C0.346,-0.071 0.378,-0.089 0.4,-0.124C0.422,-0.16 0.433,-0.211 0.433,-0.278C0.433,-0.346 0.422,-0.397 0.4,-0.432C0.389,-0.45 0.375,-0.464 0.358,-0.472C0.342,-0.48 0.323,-0.484 0.303,-0.484C0.26,-0.484 0.226,-0.466 0.203,-0.432C0.18,-0.397 0.168,-0.345 0.168,-0.277C0.168,-0.211 0.18,-0.16 0.204,-0.124C0.227,-0.089 0.26,-0.071 0.304,-0.071Z" style="fill:white;fill-rule:nonzero;"/>
            </g>
        </g>
        <g transform="matrix(1.11392,0.643125,-0.643125,1.11392,-346.404,814.838)">
            <g transform="matrix(94.0543,0,0,94.0543,1417.28,787.254)">
                <path d="M0.25,0.014C0.194,0.014 0.149,-0.002 0.116,-0.033C0.101,-0.048 0.088,-0.066 0.08,-0.086C0.071,-0.107 0.066,-0.131 0.066,-0.16C0.066,-0.22 0.087,-0.266 0.128,-0.298C0.168,-0.329 0.228,-0.345 0.308,-0.345L0.428,-0.345L0.428,-0.359C0.428,-0.403 0.417,-0.434 0.395,-0.455C0.374,-0.474 0.339,-0.484 0.291,-0.484C0.26,-0.484 0.229,-0.479 0.198,-0.471C0.166,-0.462 0.135,-0.449 0.106,-0.432L0.106,-0.522C0.12,-0.527 0.135,-0.532 0.152,-0.538C0.168,-0.543 0.185,-0.547 0.202,-0.551C0.231,-0.557 0.261,-0.56 0.292,-0.56C0.336,-0.56 0.375,-0.553 0.407,-0.54C0.422,-0.533 0.436,-0.525 0.45,-0.515C0.463,-0.505 0.475,-0.493 0.484,-0.48C0.491,-0.471 0.497,-0.461 0.501,-0.451C0.505,-0.44 0.508,-0.43 0.511,-0.42C0.516,-0.397 0.519,-0.361 0.519,-0.312L0.519,-0.2C0.519,-0.181 0.52,-0.165 0.52,-0.15C0.52,-0.136 0.521,-0.123 0.523,-0.11C0.525,-0.097 0.526,-0.084 0.529,-0.072C0.531,-0.06 0.533,-0.051 0.534,-0.044C0.536,-0.034 0.539,-0.025 0.542,-0.016C0.545,-0.007 0.547,-0.002 0.547,-0L0.457,-0C0.453,-0.01 0.448,-0.024 0.444,-0.042C0.442,-0.05 0.441,-0.057 0.439,-0.064C0.438,-0.072 0.437,-0.078 0.436,-0.083C0.427,-0.067 0.414,-0.052 0.4,-0.04C0.385,-0.027 0.37,-0.017 0.356,-0.009C0.326,0.006 0.291,0.014 0.25,0.014ZM0.269,-0.061C0.318,-0.061 0.357,-0.078 0.385,-0.113C0.414,-0.148 0.428,-0.195 0.428,-0.255L0.428,-0.275L0.314,-0.275C0.263,-0.275 0.223,-0.266 0.196,-0.248C0.17,-0.229 0.156,-0.202 0.156,-0.165C0.156,-0.132 0.166,-0.107 0.186,-0.088C0.195,-0.08 0.207,-0.073 0.22,-0.068C0.234,-0.063 0.25,-0.061 0.269,-0.061Z" style="fill:white;fill-rule:nonzero;"/>
            </g>
            <g transform="matrix(94.0543,0,0,94.0543,1473.91,787.254)">
                <path d="M0.099,-0.083L0.413,-0.476L0.111,-0.476L0.111,-0.548L0.508,-0.548L0.508,-0.466L0.194,-0.073L0.508,-0.073L0.508,-0L0.099,-0L0.099,-0.083Z" style="fill:white;fill-rule:nonzero;"/>
            </g>
            <g transform="matrix(94.0543,0,0,94.0543,1530.53,787.254)">
                <path d="M0.261,0.014C0.205,0.014 0.164,-0.004 0.136,-0.041C0.109,-0.077 0.095,-0.133 0.095,-0.207L0.095,-0.546L0.185,-0.546L0.185,-0.207C0.185,-0.158 0.194,-0.121 0.211,-0.099C0.22,-0.088 0.231,-0.079 0.243,-0.073C0.256,-0.067 0.272,-0.064 0.292,-0.064C0.334,-0.064 0.367,-0.079 0.389,-0.109C0.412,-0.139 0.423,-0.181 0.423,-0.237L0.423,-0.546L0.513,-0.546L0.513,-0L0.432,-0L0.423,-0.082C0.407,-0.05 0.385,-0.027 0.358,-0.01C0.33,0.006 0.298,0.014 0.261,0.014Z" style="fill:white;fill-rule:nonzero;"/>
            </g>
            <g transform="matrix(94.0543,0,0,94.0543,1587.16,787.254)">
                <path d="M0.147,-0.547L0.229,-0.547L0.238,-0.44C0.253,-0.478 0.276,-0.508 0.307,-0.529C0.338,-0.55 0.375,-0.56 0.417,-0.56C0.438,-0.56 0.459,-0.557 0.479,-0.552C0.499,-0.546 0.518,-0.538 0.535,-0.526L0.535,-0.434C0.516,-0.449 0.497,-0.46 0.476,-0.467C0.456,-0.474 0.434,-0.477 0.41,-0.477C0.355,-0.477 0.312,-0.459 0.282,-0.424C0.253,-0.39 0.238,-0.339 0.238,-0.272L0.238,-0L0.147,-0L0.147,-0.547Z" style="fill:white;fill-rule:nonzero;"/>
            </g>
            <g transform="matrix(94.0543,0,0,94.0543,1643.78,787.254)">
                <path d="M0.331,0.014C0.246,0.014 0.18,-0.011 0.132,-0.062C0.084,-0.113 0.061,-0.183 0.061,-0.272C0.061,-0.318 0.067,-0.359 0.079,-0.393C0.091,-0.428 0.109,-0.458 0.13,-0.482C0.154,-0.508 0.182,-0.528 0.214,-0.541C0.246,-0.554 0.28,-0.56 0.317,-0.56C0.388,-0.56 0.444,-0.537 0.484,-0.49C0.524,-0.443 0.543,-0.379 0.543,-0.296L0.543,-0.252L0.154,-0.252L0.154,-0.249C0.154,-0.19 0.17,-0.144 0.201,-0.111C0.216,-0.095 0.234,-0.083 0.256,-0.075C0.277,-0.066 0.302,-0.062 0.332,-0.062C0.362,-0.062 0.392,-0.067 0.422,-0.076C0.438,-0.08 0.455,-0.086 0.471,-0.093C0.488,-0.1 0.505,-0.108 0.522,-0.117L0.522,-0.028C0.489,-0.014 0.456,-0.004 0.424,0.004C0.408,0.007 0.393,0.01 0.377,0.012C0.361,0.013 0.346,0.014 0.331,0.014ZM0.454,-0.322C0.453,-0.35 0.449,-0.374 0.443,-0.394C0.436,-0.414 0.427,-0.431 0.417,-0.443C0.393,-0.47 0.359,-0.484 0.315,-0.484C0.271,-0.484 0.235,-0.47 0.208,-0.441C0.18,-0.412 0.163,-0.373 0.158,-0.322L0.454,-0.322Z" style="fill:white;fill-rule:nonzero;"/>
            </g>
        </g>
        <g transform="matrix(1.07102e-15,-1.28625,1.28625,1.07102e-15,-753.716,3508.34)">
            <g transform="matrix(94.0543,0,0,94.0543,1388.97,787.254)">
                <path d="M0.049,-0.547L0.142,-0.547L0.301,-0.088L0.46,-0.547L0.553,-0.547L0.359,-0L0.243,-0L0.049,-0.547Z" style="fill:white;fill-rule:nonzero;"/>
            </g>
            <g transform="matrix(94.0543,0,0,94.0543,1445.59,787.254)">
                <path d="M0.255,-0.646C0.246,-0.646 0.241,-0.651 0.241,-0.661L0.241,-0.745C0.241,-0.755 0.246,-0.76 0.255,-0.76L0.326,-0.76C0.335,-0.76 0.34,-0.755 0.34,-0.745L0.34,-0.661C0.34,-0.651 0.335,-0.646 0.326,-0.646L0.255,-0.646ZM0.419,0.004C0.393,0.004 0.37,-0 0.349,-0.008C0.329,-0.016 0.311,-0.03 0.295,-0.048C0.265,-0.082 0.25,-0.131 0.25,-0.194L0.25,-0.477L0.131,-0.477L0.131,-0.547L0.34,-0.547L0.34,-0.194C0.34,-0.153 0.348,-0.123 0.363,-0.103C0.378,-0.083 0.4,-0.072 0.428,-0.072L0.533,-0.072L0.533,0.004L0.419,0.004Z" style="fill:white;fill-rule:nonzero;"/>
            </g>
            <g transform="matrix(94.0543,0,0,94.0543,1502.22,787.254)">
                <path d="M0.301,0.014C0.225,0.014 0.167,-0.01 0.127,-0.059C0.106,-0.084 0.091,-0.115 0.082,-0.151C0.072,-0.187 0.067,-0.228 0.067,-0.273C0.067,-0.366 0.087,-0.437 0.127,-0.486C0.167,-0.535 0.225,-0.56 0.301,-0.56C0.377,-0.56 0.435,-0.535 0.475,-0.486C0.515,-0.437 0.535,-0.366 0.535,-0.274C0.535,-0.179 0.515,-0.107 0.475,-0.059C0.436,-0.01 0.378,0.014 0.301,0.014ZM0.301,-0.062C0.347,-0.062 0.381,-0.08 0.405,-0.116C0.428,-0.151 0.44,-0.204 0.44,-0.273C0.44,-0.342 0.428,-0.395 0.405,-0.431C0.381,-0.466 0.347,-0.484 0.301,-0.484C0.255,-0.484 0.221,-0.466 0.197,-0.431C0.174,-0.395 0.162,-0.342 0.162,-0.273C0.162,-0.204 0.174,-0.151 0.197,-0.116C0.221,-0.08 0.255,-0.062 0.301,-0.062Z" style="fill:white;fill-rule:nonzero;"/>
            </g>
            <g transform="matrix(94.0543,0,0,94.0543,1558.85,787.254)">
                <path d="M0.401,0.004C0.375,0.004 0.351,-0 0.331,-0.008C0.31,-0.016 0.292,-0.03 0.276,-0.048C0.247,-0.082 0.232,-0.131 0.232,-0.194L0.232,-0.689L0.088,-0.689L0.088,-0.76L0.322,-0.76L0.322,-0.194C0.322,-0.153 0.329,-0.123 0.344,-0.103C0.359,-0.083 0.381,-0.072 0.41,-0.072L0.515,-0.072L0.515,0.004L0.401,0.004Z" style="fill:white;fill-rule:nonzero;"/>
            </g>
            <g transform="matrix(94.0543,0,0,94.0543,1615.47,787.254)">
                <path d="M0.331,0.014C0.246,0.014 0.18,-0.011 0.132,-0.062C0.084,-0.113 0.061,-0.183 0.061,-0.272C0.061,-0.318 0.067,-0.359 0.079,-0.393C0.091,-0.428 0.109,-0.458 0.13,-0.482C0.154,-0.508 0.182,-0.528 0.214,-0.541C0.246,-0.554 0.28,-0.56 0.317,-0.56C0.388,-0.56 0.444,-0.537 0.484,-0.49C0.524,-0.443 0.543,-0.379 0.543,-0.296L0.543,-0.252L0.154,-0.252L0.154,-0.249C0.154,-0.19 0.17,-0.144 0.201,-0.111C0.216,-0.095 0.234,-0.083 0.256,-0.075C0.277,-0.066 0.302,-0.062 0.332,-0.062C0.362,-0.062 0.392,-0.067 0.422,-0.076C0.438,-0.08 0.455,-0.086 0.471,-0.093C0.488,-0.1 0.505,-0.108 0.522,-0.117L0.522,-0.028C0.489,-0.014 0.456,-0.004 0.424,0.004C0.408,0.007 0.393,0.01 0.377,0.012C0.361,0.013 0.346,0.014 0.331,0.014ZM0.454,-0.322C0.453,-0.35 0.449,-0.374 0.443,-0.394C0.436,-0.414 0.427,-0.431 0.417,-0.443C0.393,-0.47 0.359,-0.484 0.315,-0.484C0.271,-0.484 0.235,-0.47 0.208,-0.441C0.18,-0.412 0.163,-0.373 0.158,-0.322L0.454,-0.322Z" style="fill:white;fill-rule:nonzero;"/>
            </g>
            <g transform="matrix(94.0543,0,0,94.0543,1672.1,787.254)">
                <path d="M0.394,0.002C0.327,0.002 0.279,-0.012 0.251,-0.039C0.224,-0.065 0.21,-0.112 0.21,-0.178L0.21,-0.477L0.064,-0.477L0.064,-0.547L0.21,-0.547L0.21,-0.69L0.3,-0.729L0.3,-0.547L0.504,-0.547L0.504,-0.477L0.3,-0.477L0.3,-0.178C0.3,-0.138 0.307,-0.11 0.323,-0.094C0.338,-0.078 0.364,-0.07 0.403,-0.07L0.504,-0.07L0.504,0.002L0.394,0.002Z" style="fill:white;fill-rule:nonzero;"/>
            </g>
        </g>
        <g transform="matrix(1.28625,0,0,1.28625,-437.771,1865.83)">
            <g transform="matrix(94.0543,0,0,94.0543,1445.59,787.254)">
                <path d="M0.348,0.014C0.264,0.014 0.199,-0.011 0.151,-0.062C0.104,-0.113 0.08,-0.183 0.08,-0.273C0.08,-0.319 0.086,-0.36 0.099,-0.396C0.111,-0.431 0.129,-0.46 0.152,-0.484C0.2,-0.535 0.265,-0.56 0.348,-0.56C0.378,-0.56 0.404,-0.557 0.427,-0.55C0.451,-0.543 0.476,-0.533 0.503,-0.518L0.503,-0.424C0.478,-0.446 0.454,-0.461 0.432,-0.47C0.407,-0.479 0.38,-0.484 0.351,-0.484C0.294,-0.484 0.25,-0.466 0.22,-0.429C0.19,-0.392 0.175,-0.34 0.175,-0.273C0.175,-0.242 0.178,-0.213 0.185,-0.187C0.192,-0.16 0.204,-0.137 0.22,-0.117C0.251,-0.08 0.295,-0.062 0.352,-0.062C0.368,-0.062 0.383,-0.063 0.397,-0.066C0.41,-0.069 0.423,-0.072 0.434,-0.077C0.449,-0.082 0.461,-0.089 0.472,-0.096C0.483,-0.103 0.493,-0.112 0.503,-0.121L0.503,-0.028C0.492,-0.021 0.48,-0.015 0.467,-0.01C0.454,-0.004 0.441,0 0.429,0.004C0.417,0.007 0.405,0.01 0.391,0.011C0.378,0.013 0.363,0.014 0.348,0.014Z" style="fill:white;fill-rule:nonzero;"/>
            </g>
            <g transform="matrix(94.0543,0,0,94.0543,1502.22,787.254)">
                <path d="M0.09,0.133L0.143,0.133C0.158,0.133 0.17,0.131 0.18,0.126C0.19,0.122 0.199,0.116 0.205,0.11C0.212,0.102 0.22,0.09 0.229,0.071C0.239,0.053 0.25,0.026 0.262,-0.009L0.051,-0.547L0.146,-0.547L0.308,-0.119L0.468,-0.547L0.563,-0.547L0.419,-0.176C0.41,-0.152 0.403,-0.134 0.398,-0.122C0.393,-0.11 0.39,-0.101 0.388,-0.096C0.385,-0.09 0.384,-0.085 0.382,-0.081C0.381,-0.077 0.378,-0.071 0.375,-0.063C0.373,-0.055 0.368,-0.043 0.362,-0.025C0.349,0.01 0.338,0.038 0.33,0.058C0.321,0.079 0.314,0.095 0.309,0.106C0.304,0.117 0.3,0.125 0.297,0.131C0.29,0.143 0.282,0.154 0.273,0.164C0.264,0.173 0.253,0.182 0.241,0.189C0.218,0.202 0.192,0.208 0.162,0.208L0.09,0.208L0.09,0.133Z" style="fill:white;fill-rule:nonzero;"/>
            </g>
            <g transform="matrix(94.0543,0,0,94.0543,1558.85,787.254)">
                <path d="M0.25,0.014C0.194,0.014 0.149,-0.002 0.116,-0.033C0.101,-0.048 0.088,-0.066 0.08,-0.086C0.071,-0.107 0.066,-0.131 0.066,-0.16C0.066,-0.22 0.087,-0.266 0.128,-0.298C0.168,-0.329 0.228,-0.345 0.308,-0.345L0.428,-0.345L0.428,-0.359C0.428,-0.403 0.417,-0.434 0.395,-0.455C0.374,-0.474 0.339,-0.484 0.291,-0.484C0.26,-0.484 0.229,-0.479 0.198,-0.471C0.166,-0.462 0.135,-0.449 0.106,-0.432L0.106,-0.522C0.12,-0.527 0.135,-0.532 0.152,-0.538C0.168,-0.543 0.185,-0.547 0.202,-0.551C0.231,-0.557 0.261,-0.56 0.292,-0.56C0.336,-0.56 0.375,-0.553 0.407,-0.54C0.422,-0.533 0.436,-0.525 0.45,-0.515C0.463,-0.505 0.475,-0.493 0.484,-0.48C0.491,-0.471 0.497,-0.461 0.501,-0.451C0.505,-0.44 0.508,-0.43 0.511,-0.42C0.516,-0.397 0.519,-0.361 0.519,-0.312L0.519,-0.2C0.519,-0.181 0.52,-0.165 0.52,-0.15C0.52,-0.136 0.521,-0.123 0.523,-0.11C0.525,-0.097 0.526,-0.084 0.529,-0.072C0.531,-0.06 0.533,-0.051 0.534,-0.044C0.536,-0.034 0.539,-0.025 0.542,-0.016C0.545,-0.007 0.547,-0.002 0.547,-0L0.457,-0C0.453,-0.01 0.448,-0.024 0.444,-0.042C0.442,-0.05 0.441,-0.057 0.439,-0.064C0.438,-0.072 0.437,-0.078 0.436,-0.083C0.427,-0.067 0.414,-0.052 0.4,-0.04C0.385,-0.027 0.37,-0.017 0.356,-0.009C0.326,0.006 0.291,0.014 0.25,0.014ZM0.269,-0.061C0.318,-0.061 0.357,-0.078 0.385,-0.113C0.414,-0.148 0.428,-0.195 0.428,-0.255L0.428,-0.275L0.314,-0.275C0.263,-0.275 0.223,-0.266 0.196,-0.248C0.17,-0.229 0.156,-0.202 0.156,-0.165C0.156,-0.132 0.166,-0.107 0.186,-0.088C0.195,-0.08 0.207,-0.073 0.22,-0.068C0.234,-0.063 0.25,-0.061 0.269,-0.061Z" style="fill:white;fill-rule:nonzero;"/>
            </g>
            <g transform="matrix(94.0543,0,0,94.0543,1615.47,787.254)">
                <path d="M0.095,-0.547L0.176,-0.547L0.185,-0.465C0.218,-0.528 0.272,-0.56 0.347,-0.56C0.376,-0.56 0.401,-0.555 0.421,-0.546C0.442,-0.536 0.459,-0.523 0.472,-0.505C0.5,-0.469 0.513,-0.413 0.513,-0.339L0.513,-0L0.423,-0L0.423,-0.339C0.423,-0.388 0.414,-0.424 0.397,-0.447C0.38,-0.47 0.353,-0.482 0.315,-0.482C0.273,-0.482 0.241,-0.467 0.219,-0.438C0.196,-0.408 0.185,-0.365 0.185,-0.309L0.185,-0L0.095,-0L0.095,-0.547Z" style="fill:white;fill-rule:nonzero;"/>
            </g>
        </g>
        <g transform="matrix(0.643125,1.11392,-1.11392,0.643125,249.583,-56.3609)">
            <g transform="matrix(94.0543,0,0,94.0543,1445.59,787.254)">
                <path d="M0.33,0.014C0.298,0.014 0.27,0.007 0.244,-0.007C0.219,-0.021 0.199,-0.042 0.184,-0.069L0.175,-0L0.094,-0L0.094,-0.76L0.184,-0.76L0.184,-0.477C0.198,-0.504 0.218,-0.525 0.244,-0.539C0.269,-0.553 0.298,-0.56 0.332,-0.56C0.363,-0.56 0.392,-0.554 0.418,-0.542C0.444,-0.529 0.467,-0.51 0.486,-0.485C0.524,-0.434 0.543,-0.363 0.543,-0.274C0.543,-0.185 0.524,-0.114 0.486,-0.063C0.449,-0.012 0.397,0.014 0.33,0.014ZM0.317,-0.062C0.361,-0.062 0.393,-0.08 0.415,-0.115C0.437,-0.151 0.448,-0.204 0.448,-0.273C0.448,-0.342 0.437,-0.395 0.415,-0.431C0.393,-0.466 0.361,-0.484 0.317,-0.484C0.273,-0.484 0.24,-0.466 0.218,-0.431C0.195,-0.395 0.184,-0.342 0.184,-0.273C0.184,-0.204 0.195,-0.151 0.218,-0.116C0.24,-0.08 0.273,-0.062 0.317,-0.062Z" style="fill:white;fill-rule:nonzero;"/>
            </g>
            <g transform="matrix(94.0543,0,0,94.0543,1502.22,787.254)">
                <path d="M0.401,0.004C0.375,0.004 0.351,-0 0.331,-0.008C0.31,-0.016 0.292,-0.03 0.276,-0.048C0.247,-0.082 0.232,-0.131 0.232,-0.194L0.232,-0.689L0.088,-0.689L0.088,-0.76L0.322,-0.76L0.322,-0.194C0.322,-0.153 0.329,-0.123 0.344,-0.103C0.359,-0.083 0.381,-0.072 0.41,-0.072L0.515,-0.072L0.515,0.004L0.401,0.004Z" style="fill:white;fill-rule:nonzero;"/>
            </g>
            <g transform="matrix(94.0543,0,0,94.0543,1558.85,787.254)">
                <path d="M0.261,0.014C0.205,0.014 0.164,-0.004 0.136,-0.041C0.109,-0.077 0.095,-0.133 0.095,-0.207L0.095,-0.546L0.185,-0.546L0.185,-0.207C0.185,-0.158 0.194,-0.121 0.211,-0.099C0.22,-0.088 0.231,-0.079 0.243,-0.073C0.256,-0.067 0.272,-0.064 0.292,-0.064C0.334,-0.064 0.367,-0.079 0.389,-0.109C0.412,-0.139 0.423,-0.181 0.423,-0.237L0.423,-0.546L0.513,-0.546L0.513,-0L0.432,-0L0.423,-0.082C0.407,-0.05 0.385,-0.027 0.358,-0.01C0.33,0.006 0.298,0.014 0.261,0.014Z" style="fill:white;fill-rule:nonzero;"/>
            </g>
            <g transform="matrix(94.0543,0,0,94.0543,1615.47,787.254)">
                <path d="M0.331,0.014C0.246,0.014 0.18,-0.011 0.132,-0.062C0.084,-0.113 0.061,-0.183 0.061,-0.272C0.061,-0.318 0.067,-0.359 0.079,-0.393C0.091,-0.428 0.109,-0.458 0.13,-0.482C0.154,-0.508 0.182,-0.528 0.214,-0.541C0.246,-0.554 0.28,-0.56 0.317,-0.56C0.388,-0.56 0.444,-0.537 0.484,-0.49C0.524,-0.443 0.543,-0.379 0.543,-0.296L0.543,-0.252L0.154,-0.252L0.154,-0.249C0.154,-0.19 0.17,-0.144 0.201,-0.111C0.216,-0.095 0.234,-0.083 0.256,-0.075C0.277,-0.066 0.302,-0.062 0.332,-0.062C0.362,-0.062 0.392,-0.067 0.422,-0.076C0.438,-0.08 0.455,-0.086 0.471,-0.093C0.488,-0.1 0.505,-0.108 0.522,-0.117L0.522,-0.028C0.489,-0.014 0.456,-0.004 0.424,0.004C0.408,0.007 0.393,0.01 0.377,0.012C0.361,0.013 0.346,0.014 0.331,0.014ZM0.454,-0.322C0.453,-0.35 0.449,-0.374 0.443,-0.394C0.436,-0.414 0.427,-0.431 0.417,-0.443C0.393,-0.47 0.359,-0.484 0.315,-0.484C0.271,-0.484 0.235,-0.47 0.208,-0.441C0.18,-0.412 0.163,-0.373 0.158,-0.322L0.454,-0.322Z" style="fill:white;fill-rule:nonzero;"/>
            </g>
        </g>
        <g transform="matrix(0.643125,-1.11392,1.11392,0.643125,-1447.06,2069.03)">
            <g transform="matrix(94.0543,0,0,94.0543,1360.66,787.254)">
                <path d="M0.053,-0.547L0.127,-0.547L0.135,-0.5C0.146,-0.52 0.159,-0.535 0.175,-0.545C0.191,-0.555 0.21,-0.56 0.23,-0.56C0.254,-0.56 0.275,-0.554 0.292,-0.543C0.308,-0.532 0.321,-0.514 0.33,-0.491C0.352,-0.537 0.387,-0.56 0.434,-0.56C0.479,-0.56 0.51,-0.543 0.527,-0.509C0.545,-0.476 0.554,-0.412 0.554,-0.317L0.554,-0L0.472,-0L0.472,-0.313C0.472,-0.354 0.471,-0.386 0.469,-0.408C0.467,-0.431 0.464,-0.447 0.459,-0.457C0.455,-0.465 0.45,-0.472 0.442,-0.477C0.435,-0.482 0.424,-0.485 0.411,-0.485C0.386,-0.485 0.368,-0.475 0.359,-0.455C0.354,-0.444 0.35,-0.427 0.348,-0.405C0.345,-0.382 0.344,-0.352 0.344,-0.313L0.344,-0L0.262,-0L0.262,-0.313C0.262,-0.361 0.261,-0.394 0.258,-0.415C0.255,-0.435 0.252,-0.449 0.248,-0.458C0.239,-0.476 0.223,-0.485 0.199,-0.485C0.185,-0.485 0.174,-0.482 0.167,-0.477C0.159,-0.471 0.153,-0.464 0.149,-0.456C0.145,-0.446 0.141,-0.43 0.139,-0.409C0.136,-0.388 0.135,-0.356 0.135,-0.313L0.135,-0L0.053,-0L0.053,-0.547Z" style="fill:white;fill-rule:nonzero;"/>
            </g>
            <g transform="matrix(94.0543,0,0,94.0543,1417.28,787.254)">
                <path d="M0.25,0.014C0.194,0.014 0.149,-0.002 0.116,-0.033C0.101,-0.048 0.088,-0.066 0.08,-0.086C0.071,-0.107 0.066,-0.131 0.066,-0.16C0.066,-0.22 0.087,-0.266 0.128,-0.298C0.168,-0.329 0.228,-0.345 0.308,-0.345L0.428,-0.345L0.428,-0.359C0.428,-0.403 0.417,-0.434 0.395,-0.455C0.374,-0.474 0.339,-0.484 0.291,-0.484C0.26,-0.484 0.229,-0.479 0.198,-0.471C0.166,-0.462 0.135,-0.449 0.106,-0.432L0.106,-0.522C0.12,-0.527 0.135,-0.532 0.152,-0.538C0.168,-0.543 0.185,-0.547 0.202,-0.551C0.231,-0.557 0.261,-0.56 0.292,-0.56C0.336,-0.56 0.375,-0.553 0.407,-0.54C0.422,-0.533 0.436,-0.525 0.45,-0.515C0.463,-0.505 0.475,-0.493 0.484,-0.48C0.491,-0.471 0.497,-0.461 0.501,-0.451C0.505,-0.44 0.508,-0.43 0.511,-0.42C0.516,-0.397 0.519,-0.361 0.519,-0.312L0.519,-0.2C0.519,-0.181 0.52,-0.165 0.52,-0.15C0.52,-0.136 0.521,-0.123 0.523,-0.11C0.525,-0.097 0.526,-0.084 0.529,-0.072C0.531,-0.06 0.533,-0.051 0.534,-0.044C0.536,-0.034 0.539,-0.025 0.542,-0.016C0.545,-0.007 0.547,-0.002 0.547,-0L0.457,-0C0.453,-0.01 0.448,-0.024 0.444,-0.042C0.442,-0.05 0.441,-0.057 0.439,-0.064C0.438,-0.072 0.437,-0.078 0.436,-0.083C0.427,-0.067 0.414,-0.052 0.4,-0.04C0.385,-0.027 0.37,-0.017 0.356,-0.009C0.326,0.006 0.291,0.014 0.25,0.014ZM0.269,-0.061C0.318,-0.061 0.357,-0.078 0.385,-0.113C0.414,-0.148 0.428,-0.195 0.428,-0.255L0.428,-0.275L0.314,-0.275C0.263,-0.275 0.223,-0.266 0.196,-0.248C0.17,-0.229 0.156,-0.202 0.156,-0.165C0.156,-0.132 0.166,-0.107 0.186,-0.088C0.195,-0.08 0.207,-0.073 0.22,-0.068C0.234,-0.063 0.25,-0.061 0.269,-0.061Z" style="fill:white;fill-rule:nonzero;"/>
            </g>
            <g transform="matrix(94.0543,0,0,94.0543,1473.91,787.254)">
                <path d="M0.293,0.215C0.281,0.215 0.268,0.214 0.255,0.213C0.243,0.212 0.229,0.21 0.216,0.208C0.19,0.204 0.163,0.197 0.135,0.188L0.135,0.099C0.151,0.107 0.166,0.113 0.181,0.119C0.196,0.124 0.209,0.129 0.222,0.132C0.246,0.139 0.271,0.143 0.295,0.143C0.342,0.143 0.377,0.13 0.399,0.103C0.422,0.077 0.433,0.035 0.433,-0.022L0.433,-0.087C0.418,-0.056 0.399,-0.034 0.374,-0.019C0.349,-0.004 0.319,0.004 0.284,0.004C0.22,0.004 0.169,-0.022 0.131,-0.073C0.093,-0.124 0.074,-0.192 0.074,-0.278C0.074,-0.363 0.093,-0.432 0.131,-0.483C0.169,-0.535 0.221,-0.56 0.285,-0.56C0.319,-0.56 0.348,-0.553 0.373,-0.539C0.397,-0.525 0.417,-0.504 0.433,-0.474L0.441,-0.545L0.522,-0.545L0.522,-0.035C0.522,0.047 0.503,0.109 0.464,0.151C0.426,0.194 0.369,0.215 0.293,0.215ZM0.304,-0.071C0.346,-0.071 0.378,-0.089 0.4,-0.124C0.422,-0.16 0.433,-0.211 0.433,-0.278C0.433,-0.346 0.422,-0.397 0.4,-0.432C0.389,-0.45 0.375,-0.464 0.358,-0.472C0.342,-0.48 0.323,-0.484 0.303,-0.484C0.26,-0.484 0.226,-0.466 0.203,-0.432C0.18,-0.397 0.168,-0.345 0.168,-0.277C0.168,-0.211 0.18,-0.16 0.204,-0.124C0.227,-0.089 0.26,-0.071 0.304,-0.071Z" style="fill:white;fill-rule:nonzero;"/>
            </g>
            <g transform="matrix(94.0543,0,0,94.0543,1530.53,787.254)">
                <path d="M0.331,0.014C0.246,0.014 0.18,-0.011 0.132,-0.062C0.084,-0.113 0.061,-0.183 0.061,-0.272C0.061,-0.318 0.067,-0.359 0.079,-0.393C0.091,-0.428 0.109,-0.458 0.13,-0.482C0.154,-0.508 0.182,-0.528 0.214,-0.541C0.246,-0.554 0.28,-0.56 0.317,-0.56C0.388,-0.56 0.444,-0.537 0.484,-0.49C0.524,-0.443 0.543,-0.379 0.543,-0.296L0.543,-0.252L0.154,-0.252L0.154,-0.249C0.154,-0.19 0.17,-0.144 0.201,-0.111C0.216,-0.095 0.234,-0.083 0.256,-0.075C0.277,-0.066 0.302,-0.062 0.332,-0.062C0.362,-0.062 0.392,-0.067 0.422,-0.076C0.438,-0.08 0.455,-0.086 0.471,-0.093C0.488,-0.1 0.505,-0.108 0.522,-0.117L0.522,-0.028C0.489,-0.014 0.456,-0.004 0.424,0.004C0.408,0.007 0.393,0.01 0.377,0.012C0.361,0.013 0.346,0.014 0.331,0.014ZM0.454,-0.322C0.453,-0.35 0.449,-0.374 0.443,-0.394C0.436,-0.414 0.427,-0.431 0.417,-0.443C0.393,-0.47 0.359,-0.484 0.315,-0.484C0.271,-0.484 0.235,-0.47 0.208,-0.441C0.18,-0.412 0.163,-0.373 0.158,-0.322L0.454,-0.322Z" style="fill:white;fill-rule:nonzero;"/>
            </g>
            <g transform="matrix(94.0543,0,0,94.0543,1587.16,787.254)">
                <path d="M0.095,-0.547L0.176,-0.547L0.185,-0.465C0.218,-0.528 0.272,-0.56 0.347,-0.56C0.376,-0.56 0.401,-0.555 0.421,-0.546C0.442,-0.536 0.459,-0.523 0.472,-0.505C0.5,-0.469 0.513,-0.413 0.513,-0.339L0.513,-0L0.423,-0L0.423,-0.339C0.423,-0.388 0.414,-0.424 0.397,-0.447C0.38,-0.47 0.353,-0.482 0.315,-0.482C0.273,-0.482 0.241,-0.467 0.219,-0.438C0.196,-0.408 0.185,-0.365 0.185,-0.309L0.185,-0L0.095,-0L0.095,-0.547Z" style="fill:white;fill-rule:nonzero;"/>
            </g>
            <g transform="matrix(94.0543,0,0,94.0543,1643.78,787.254)">
                <path d="M0.394,0.002C0.327,0.002 0.279,-0.012 0.251,-0.039C0.224,-0.065 0.21,-0.112 0.21,-0.178L0.21,-0.477L0.064,-0.477L0.064,-0.547L0.21,-0.547L0.21,-0.69L0.3,-0.729L0.3,-0.547L0.504,-0.547L0.504,-0.477L0.3,-0.477L0.3,-0.178C0.3,-0.138 0.307,-0.11 0.323,-0.094C0.338,-0.078 0.364,-0.07 0.403,-0.07L0.504,-0.07L0.504,0.002L0.394,0.002Z" style="fill:white;fill-rule:nonzero;"/>
            </g>
            <g transform="matrix(94.0543,0,0,94.0543,1700.41,787.254)">
                <path d="M0.25,0.014C0.194,0.014 0.149,-0.002 0.116,-0.033C0.101,-0.048 0.088,-0.066 0.08,-0.086C0.071,-0.107 0.066,-0.131 0.066,-0.16C0.066,-0.22 0.087,-0.266 0.128,-0.298C0.168,-0.329 0.228,-0.345 0.308,-0.345L0.428,-0.345L0.428,-0.359C0.428,-0.403 0.417,-0.434 0.395,-0.455C0.374,-0.474 0.339,-0.484 0.291,-0.484C0.26,-0.484 0.229,-0.479 0.198,-0.471C0.166,-0.462 0.135,-0.449 0.106,-0.432L0.106,-0.522C0.12,-0.527 0.135,-0.532 0.152,-0.538C0.168,-0.543 0.185,-0.547 0.202,-0.551C0.231,-0.557 0.261,-0.56 0.292,-0.56C0.336,-0.56 0.375,-0.553 0.407,-0.54C0.422,-0.533 0.436,-0.525 0.45,-0.515C0.463,-0.505 0.475,-0.493 0.484,-0.48C0.491,-0.471 0.497,-0.461 0.501,-0.451C0.505,-0.44 0.508,-0.43 0.511,-0.42C0.516,-0.397 0.519,-0.361 0.519,-0.312L0.519,-0.2C0.519,-0.181 0.52,-0.165 0.52,-0.15C0.52,-0.136 0.521,-0.123 0.523,-0.11C0.525,-0.097 0.526,-0.084 0.529,-0.072C0.531,-0.06 0.533,-0.051 0.534,-0.044C0.536,-0.034 0.539,-0.025 0.542,-0.016C0.545,-0.007 0.547,-0.002 0.547,-0L0.457,-0C0.453,-0.01 0.448,-0.024 0.444,-0.042C0.442,-0.05 0.441,-0.057 0.439,-0.064C0.438,-0.072 0.437,-0.078 0.436,-0.083C0.427,-0.067 0.414,-0.052 0.4,-0.04C0.385,-0.027 0.37,-0.017 0.356,-0.009C0.326,0.006 0.291,0.014 0.25,0.014ZM0.269,-0.061C0.318,-0.061 0.357,-0.078 0.385,-0.113C0.414,-0.148 0.428,-0.195 0.428,-0.255L0.428,-0.275L0.314,-0.275C0.263,-0.275 0.223,-0.266 0.196,-0.248C0.17,-0.229 0.156,-0.202 0.156,-0.165C0.156,-0.132 0.166,-0.107 0.186,-0.088C0.195,-0.08 0.207,-0.073 0.22,-0.068C0.234,-0.063 0.25,-0.061 0.269,-0.061Z" style="fill:white;fill-rule:nonzero;"/>
            </g>
        </g>
        <g transform="matrix(1.11392,-0.643125,0.643125,1.11392,-1334.83,492.762)">
            <g transform="matrix(94.0543,0,0,94.0543,1445.59,787.254)">
                <path d="M0.147,-0.547L0.229,-0.547L0.238,-0.44C0.253,-0.478 0.276,-0.508 0.307,-0.529C0.338,-0.55 0.375,-0.56 0.417,-0.56C0.438,-0.56 0.459,-0.557 0.479,-0.552C0.499,-0.546 0.518,-0.538 0.535,-0.526L0.535,-0.434C0.516,-0.449 0.497,-0.46 0.476,-0.467C0.456,-0.474 0.434,-0.477 0.41,-0.477C0.355,-0.477 0.312,-0.459 0.282,-0.424C0.253,-0.39 0.238,-0.339 0.238,-0.272L0.238,-0L0.147,-0L0.147,-0.547Z" style="fill:white;fill-rule:nonzero;"/>
            </g>
            <g transform="matrix(94.0543,0,0,94.0543,1502.22,787.254)">
                <path d="M0.301,0.014C0.225,0.014 0.167,-0.01 0.127,-0.059C0.106,-0.084 0.091,-0.115 0.082,-0.151C0.072,-0.187 0.067,-0.228 0.067,-0.273C0.067,-0.366 0.087,-0.437 0.127,-0.486C0.167,-0.535 0.225,-0.56 0.301,-0.56C0.377,-0.56 0.435,-0.535 0.475,-0.486C0.515,-0.437 0.535,-0.366 0.535,-0.274C0.535,-0.179 0.515,-0.107 0.475,-0.059C0.436,-0.01 0.378,0.014 0.301,0.014ZM0.301,-0.062C0.347,-0.062 0.381,-0.08 0.405,-0.116C0.428,-0.151 0.44,-0.204 0.44,-0.273C0.44,-0.342 0.428,-0.395 0.405,-0.431C0.381,-0.466 0.347,-0.484 0.301,-0.484C0.255,-0.484 0.221,-0.466 0.197,-0.431C0.174,-0.395 0.162,-0.342 0.162,-0.273C0.162,-0.204 0.174,-0.151 0.197,-0.116C0.221,-0.08 0.255,-0.062 0.301,-0.062Z" style="fill:white;fill-rule:nonzero;"/>
            </g>
            <g transform="matrix(94.0543,0,0,94.0543,1558.85,787.254)">
                <path d="M0.288,0.014C0.258,0.014 0.229,0.011 0.2,0.006C0.188,0.003 0.173,-0 0.156,-0.005C0.138,-0.009 0.121,-0.014 0.104,-0.02L0.104,-0.113C0.125,-0.102 0.143,-0.094 0.157,-0.089C0.172,-0.083 0.186,-0.078 0.2,-0.074C0.215,-0.07 0.23,-0.067 0.244,-0.064C0.258,-0.062 0.272,-0.061 0.287,-0.061C0.326,-0.061 0.357,-0.069 0.379,-0.085C0.391,-0.094 0.399,-0.104 0.404,-0.115C0.41,-0.127 0.412,-0.138 0.412,-0.15C0.412,-0.173 0.403,-0.191 0.383,-0.205C0.364,-0.219 0.334,-0.231 0.292,-0.239L0.289,-0.24L0.255,-0.247C0.23,-0.252 0.209,-0.258 0.19,-0.267C0.171,-0.275 0.155,-0.285 0.142,-0.298C0.118,-0.322 0.106,-0.355 0.106,-0.396C0.106,-0.449 0.124,-0.49 0.159,-0.518C0.178,-0.533 0.2,-0.543 0.226,-0.55C0.251,-0.557 0.28,-0.56 0.312,-0.56C0.341,-0.56 0.369,-0.557 0.396,-0.552C0.408,-0.55 0.421,-0.546 0.434,-0.542C0.448,-0.538 0.461,-0.533 0.475,-0.528L0.475,-0.44C0.449,-0.455 0.424,-0.466 0.397,-0.474C0.371,-0.481 0.344,-0.485 0.316,-0.485C0.277,-0.485 0.247,-0.478 0.227,-0.465C0.207,-0.452 0.197,-0.432 0.197,-0.404C0.199,-0.392 0.201,-0.381 0.203,-0.373C0.205,-0.364 0.211,-0.357 0.219,-0.35C0.226,-0.344 0.239,-0.338 0.257,-0.333C0.274,-0.327 0.299,-0.321 0.331,-0.315L0.367,-0.308C0.413,-0.299 0.447,-0.282 0.469,-0.257C0.492,-0.233 0.503,-0.199 0.503,-0.158C0.503,-0.13 0.498,-0.105 0.488,-0.085C0.478,-0.064 0.464,-0.046 0.445,-0.032C0.425,-0.016 0.402,-0.005 0.376,0.003C0.349,0.01 0.32,0.014 0.288,0.014Z" style="fill:white;fill-rule:nonzero;"/>
            </g>
            <g transform="matrix(94.0543,0,0,94.0543,1615.47,787.254)">
                <path d="M0.331,0.014C0.246,0.014 0.18,-0.011 0.132,-0.062C0.084,-0.113 0.061,-0.183 0.061,-0.272C0.061,-0.318 0.067,-0.359 0.079,-0.393C0.091,-0.428 0.109,-0.458 0.13,-0.482C0.154,-0.508 0.182,-0.528 0.214,-0.541C0.246,-0.554 0.28,-0.56 0.317,-0.56C0.388,-0.56 0.444,-0.537 0.484,-0.49C0.524,-0.443 0.543,-0.379 0.543,-0.296L0.543,-0.252L0.154,-0.252L0.154,-0.249C0.154,-0.19 0.17,-0.144 0.201,-0.111C0.216,-0.095 0.234,-0.083 0.256,-0.075C0.277,-0.066 0.302,-0.062 0.332,-0.062C0.362,-0.062 0.392,-0.067 0.422,-0.076C0.438,-0.08 0.455,-0.086 0.471,-0.093C0.488,-0.1 0.505,-0.108 0.522,-0.117L0.522,-0.028C0.489,-0.014 0.456,-0.004 0.424,0.004C0.408,0.007 0.393,0.01 0.377,0.012C0.361,0.013 0.346,0.014 0.331,0.014ZM0.454,-0.322C0.453,-0.35 0.449,-0.374 0.443,-0.394C0.436,-0.414 0.427,-0.431 0.417,-0.443C0.393,-0.47 0.359,-0.484 0.315,-0.484C0.271,-0.484 0.235,-0.47 0.208,-0.441C0.18,-0.412 0.163,-0.373 0.158,-0.322L0.454,-0.322Z" style="fill:white;fill-rule:nonzero;"/>
            </g>
        </g>
        <g transform="matrix(1.11392,0.643125,-0.643125,1.11392,1012.12,-1534.18)">
            <g transform="matrix(94.0543,0,0,94.0543,1388.97,787.254)">
                <path d="M0.301,0.014C0.225,0.014 0.167,-0.01 0.127,-0.059C0.106,-0.084 0.091,-0.115 0.082,-0.151C0.072,-0.187 0.067,-0.228 0.067,-0.273C0.067,-0.366 0.087,-0.437 0.127,-0.486C0.167,-0.535 0.225,-0.56 0.301,-0.56C0.377,-0.56 0.435,-0.535 0.475,-0.486C0.515,-0.437 0.535,-0.366 0.535,-0.274C0.535,-0.179 0.515,-0.107 0.475,-0.059C0.436,-0.01 0.378,0.014 0.301,0.014ZM0.301,-0.062C0.347,-0.062 0.381,-0.08 0.405,-0.116C0.428,-0.151 0.44,-0.204 0.44,-0.273C0.44,-0.342 0.428,-0.395 0.405,-0.431C0.381,-0.466 0.347,-0.484 0.301,-0.484C0.255,-0.484 0.221,-0.466 0.197,-0.431C0.174,-0.395 0.162,-0.342 0.162,-0.273C0.162,-0.204 0.174,-0.151 0.197,-0.116C0.221,-0.08 0.255,-0.062 0.301,-0.062Z" style="fill:white;fill-rule:nonzero;"/>
            </g>
            <g transform="matrix(94.0543,0,0,94.0543,1445.59,787.254)">
                <path d="M0.147,-0.547L0.229,-0.547L0.238,-0.44C0.253,-0.478 0.276,-0.508 0.307,-0.529C0.338,-0.55 0.375,-0.56 0.417,-0.56C0.438,-0.56 0.459,-0.557 0.479,-0.552C0.499,-0.546 0.518,-0.538 0.535,-0.526L0.535,-0.434C0.516,-0.449 0.497,-0.46 0.476,-0.467C0.456,-0.474 0.434,-0.477 0.41,-0.477C0.355,-0.477 0.312,-0.459 0.282,-0.424C0.253,-0.39 0.238,-0.339 0.238,-0.272L0.238,-0L0.147,-0L0.147,-0.547Z" style="fill:white;fill-rule:nonzero;"/>
            </g>
            <g transform="matrix(94.0543,0,0,94.0543,1502.22,787.254)">
                <path d="M0.25,0.014C0.194,0.014 0.149,-0.002 0.116,-0.033C0.101,-0.048 0.088,-0.066 0.08,-0.086C0.071,-0.107 0.066,-0.131 0.066,-0.16C0.066,-0.22 0.087,-0.266 0.128,-0.298C0.168,-0.329 0.228,-0.345 0.308,-0.345L0.428,-0.345L0.428,-0.359C0.428,-0.403 0.417,-0.434 0.395,-0.455C0.374,-0.474 0.339,-0.484 0.291,-0.484C0.26,-0.484 0.229,-0.479 0.198,-0.471C0.166,-0.462 0.135,-0.449 0.106,-0.432L0.106,-0.522C0.12,-0.527 0.135,-0.532 0.152,-0.538C0.168,-0.543 0.185,-0.547 0.202,-0.551C0.231,-0.557 0.261,-0.56 0.292,-0.56C0.336,-0.56 0.375,-0.553 0.407,-0.54C0.422,-0.533 0.436,-0.525 0.45,-0.515C0.463,-0.505 0.475,-0.493 0.484,-0.48C0.491,-0.471 0.497,-0.461 0.501,-0.451C0.505,-0.44 0.508,-0.43 0.511,-0.42C0.516,-0.397 0.519,-0.361 0.519,-0.312L0.519,-0.2C0.519,-0.181 0.52,-0.165 0.52,-0.15C0.52,-0.136 0.521,-0.123 0.523,-0.11C0.525,-0.097 0.526,-0.084 0.529,-0.072C0.531,-0.06 0.533,-0.051 0.534,-0.044C0.536,-0.034 0.539,-0.025 0.542,-0.016C0.545,-0.007 0.547,-0.002 0.547,-0L0.457,-0C0.453,-0.01 0.448,-0.024 0.444,-0.042C0.442,-0.05 0.441,-0.057 0.439,-0.064C0.438,-0.072 0.437,-0.078 0.436,-0.083C0.427,-0.067 0.414,-0.052 0.4,-0.04C0.385,-0.027 0.37,-0.017 0.356,-0.009C0.326,0.006 0.291,0.014 0.25,0.014ZM0.269,-0.061C0.318,-0.061 0.357,-0.078 0.385,-0.113C0.414,-0.148 0.428,-0.195 0.428,-0.255L0.428,-0.275L0.314,-0.275C0.263,-0.275 0.223,-0.266 0.196,-0.248C0.17,-0.229 0.156,-0.202 0.156,-0.165C0.156,-0.132 0.166,-0.107 0.186,-0.088C0.195,-0.08 0.207,-0.073 0.22,-0.068C0.234,-0.063 0.25,-0.061 0.269,-0.061Z" style="fill:white;fill-rule:nonzero;"/>
            </g>
            <g transform="matrix(94.0543,0,0,94.0543,1558.85,787.254)">
                <path d="M0.095,-0.547L0.176,-0.547L0.185,-0.465C0.218,-0.528 0.272,-0.56 0.347,-0.56C0.376,-0.56 0.401,-0.555 0.421,-0.546C0.442,-0.536 0.459,-0.523 0.472,-0.505C0.5,-0.469 0.513,-0.413 0.513,-0.339L0.513,-0L0.423,-0L0.423,-0.339C0.423,-0.388 0.414,-0.424 0.397,-0.447C0.38,-0.47 0.353,-0.482 0.315,-0.482C0.273,-0.482 0.241,-0.467 0.219,-0.438C0.196,-0.408 0.185,-0.365 0.185,-0.309L0.185,-0L0.095,-0L0.095,-0.547Z" style="fill:white;fill-rule:nonzero;"/>
            </g>
            <g transform="matrix(94.0543,0,0,94.0543,1615.47,787.254)">
                <path d="M0.293,0.215C0.281,0.215 0.268,0.214 0.255,0.213C0.243,0.212 0.229,0.21 0.216,0.208C0.19,0.204 0.163,0.197 0.135,0.188L0.135,0.099C0.151,0.107 0.166,0.113 0.181,0.119C0.196,0.124 0.209,0.129 0.222,0.132C0.246,0.139 0.271,0.143 0.295,0.143C0.342,0.143 0.377,0.13 0.399,0.103C0.422,0.077 0.433,0.035 0.433,-0.022L0.433,-0.087C0.418,-0.056 0.399,-0.034 0.374,-0.019C0.349,-0.004 0.319,0.004 0.284,0.004C0.22,0.004 0.169,-0.022 0.131,-0.073C0.093,-0.124 0.074,-0.192 0.074,-0.278C0.074,-0.363 0.093,-0.432 0.131,-0.483C0.169,-0.535 0.221,-0.56 0.285,-0.56C0.319,-0.56 0.348,-0.553 0.373,-0.539C0.397,-0.525 0.417,-0.504 0.433,-0.474L0.441,-0.545L0.522,-0.545L0.522,-0.035C0.522,0.047 0.503,0.109 0.464,0.151C0.426,0.194 0.369,0.215 0.293,0.215ZM0.304,-0.071C0.346,-0.071 0.378,-0.089 0.4,-0.124C0.422,-0.16 0.433,-0.211 0.433,-0.278C0.433,-0.346 0.422,-0.397 0.4,-0.432C0.389,-0.45 0.375,-0.464 0.358,-0.472C0.342,-0.48 0.323,-0.484 0.303,-0.484C0.26,-0.484 0.226,-0.466 0.203,-0.432C0.18,-0.397 0.168,-0.345 0.168,-0.277C0.168,-0.211 0.18,-0.16 0.204,-0.124C0.227,-0.089 0.26,-0.071 0.304,-0.071Z" style="fill:white;fill-rule:nonzero;"/>
            </g>
            <g transform="matrix(94.0543,0,0,94.0543,1672.1,787.254)">
                <path d="M0.331,0.014C0.246,0.014 0.18,-0.011 0.132,-0.062C0.084,-0.113 0.061,-0.183 0.061,-0.272C0.061,-0.318 0.067,-0.359 0.079,-0.393C0.091,-0.428 0.109,-0.458 0.13,-0.482C0.154,-0.508 0.182,-0.528 0.214,-0.541C0.246,-0.554 0.28,-0.56 0.317,-0.56C0.388,-0.56 0.444,-0.537 0.484,-0.49C0.524,-0.443 0.543,-0.379 0.543,-0.296L0.543,-0.252L0.154,-0.252L0.154,-0.249C0.154,-0.19 0.17,-0.144 0.201,-0.111C0.216,-0.095 0.234,-0.083 0.256,-0.075C0.277,-0.066 0.302,-0.062 0.332,-0.062C0.362,-0.062 0.392,-0.067 0.422,-0.076C0.438,-0.08 0.455,-0.086 0.471,-0.093C0.488,-0.1 0.505,-0.108 0.522,-0.117L0.522,-0.028C0.489,-0.014 0.456,-0.004 0.424,0.004C0.408,0.007 0.393,0.01 0.377,0.012C0.361,0.013 0.346,0.014 0.331,0.014ZM0.454,-0.322C0.453,-0.35 0.449,-0.374 0.443,-0.394C0.436,-0.414 0.427,-0.431 0.417,-0.443C0.393,-0.47 0.359,-0.484 0.315,-0.484C0.271,-0.484 0.235,-0.47 0.208,-0.441C0.18,-0.412 0.163,-0.373 0.158,-0.322L0.454,-0.322Z" style="fill:white;fill-rule:nonzero;"/>
            </g>
        </g>
        <g transform="matrix(2.28921e-16,1.28625,-1.28625,2.28921e-16,3871.41,-504.385)">
            <g transform="matrix(94.0543,0,0,94.0543,1275.72,787.254)">
                <path d="M0.348,0.014C0.264,0.014 0.199,-0.011 0.151,-0.062C0.104,-0.113 0.08,-0.183 0.08,-0.273C0.08,-0.319 0.086,-0.36 0.099,-0.396C0.111,-0.431 0.129,-0.46 0.152,-0.484C0.2,-0.535 0.265,-0.56 0.348,-0.56C0.378,-0.56 0.404,-0.557 0.427,-0.55C0.451,-0.543 0.476,-0.533 0.503,-0.518L0.503,-0.424C0.478,-0.446 0.454,-0.461 0.432,-0.47C0.407,-0.479 0.38,-0.484 0.351,-0.484C0.294,-0.484 0.25,-0.466 0.22,-0.429C0.19,-0.392 0.175,-0.34 0.175,-0.273C0.175,-0.242 0.178,-0.213 0.185,-0.187C0.192,-0.16 0.204,-0.137 0.22,-0.117C0.251,-0.08 0.295,-0.062 0.352,-0.062C0.368,-0.062 0.383,-0.063 0.397,-0.066C0.41,-0.069 0.423,-0.072 0.434,-0.077C0.449,-0.082 0.461,-0.089 0.472,-0.096C0.483,-0.103 0.493,-0.112 0.503,-0.121L0.503,-0.028C0.492,-0.021 0.48,-0.015 0.467,-0.01C0.454,-0.004 0.441,0 0.429,0.004C0.417,0.007 0.405,0.01 0.391,0.011C0.378,0.013 0.363,0.014 0.348,0.014Z" style="fill:white;fill-rule:nonzero;"/>
            </g>
            <g transform="matrix(94.0543,0,0,94.0543,1332.34,787.254)">
                <path d="M0.095,-0.76L0.185,-0.76L0.185,-0.465C0.218,-0.528 0.272,-0.56 0.347,-0.56C0.376,-0.56 0.401,-0.555 0.421,-0.546C0.442,-0.536 0.459,-0.523 0.472,-0.505C0.5,-0.469 0.513,-0.413 0.513,-0.339L0.513,-0L0.423,-0L0.423,-0.339C0.423,-0.388 0.414,-0.424 0.397,-0.447C0.38,-0.47 0.353,-0.482 0.315,-0.482C0.273,-0.482 0.241,-0.467 0.219,-0.438C0.196,-0.408 0.185,-0.365 0.185,-0.309L0.185,-0L0.095,-0L0.095,-0.76Z" style="fill:white;fill-rule:nonzero;"/>
            </g>
            <g transform="matrix(94.0543,0,0,94.0543,1388.97,787.254)">
                <path d="M0.25,0.014C0.194,0.014 0.149,-0.002 0.116,-0.033C0.101,-0.048 0.088,-0.066 0.08,-0.086C0.071,-0.107 0.066,-0.131 0.066,-0.16C0.066,-0.22 0.087,-0.266 0.128,-0.298C0.168,-0.329 0.228,-0.345 0.308,-0.345L0.428,-0.345L0.428,-0.359C0.428,-0.403 0.417,-0.434 0.395,-0.455C0.374,-0.474 0.339,-0.484 0.291,-0.484C0.26,-0.484 0.229,-0.479 0.198,-0.471C0.166,-0.462 0.135,-0.449 0.106,-0.432L0.106,-0.522C0.12,-0.527 0.135,-0.532 0.152,-0.538C0.168,-0.543 0.185,-0.547 0.202,-0.551C0.231,-0.557 0.261,-0.56 0.292,-0.56C0.336,-0.56 0.375,-0.553 0.407,-0.54C0.422,-0.533 0.436,-0.525 0.45,-0.515C0.463,-0.505 0.475,-0.493 0.484,-0.48C0.491,-0.471 0.497,-0.461 0.501,-0.451C0.505,-0.44 0.508,-0.43 0.511,-0.42C0.516,-0.397 0.519,-0.361 0.519,-0.312L0.519,-0.2C0.519,-0.181 0.52,-0.165 0.52,-0.15C0.52,-0.136 0.521,-0.123 0.523,-0.11C0.525,-0.097 0.526,-0.084 0.529,-0.072C0.531,-0.06 0.533,-0.051 0.534,-0.044C0.536,-0.034 0.539,-0.025 0.542,-0.016C0.545,-0.007 0.547,-0.002 0.547,-0L0.457,-0C0.453,-0.01 0.448,-0.024 0.444,-0.042C0.442,-0.05 0.441,-0.057 0.439,-0.064C0.438,-0.072 0.437,-0.078 0.436,-0.083C0.427,-0.067 0.414,-0.052 0.4,-0.04C0.385,-0.027 0.37,-0.017 0.356,-0.009C0.326,0.006 0.291,0.014 0.25,0.014ZM0.269,-0.061C0.318,-0.061 0.357,-0.078 0.385,-0.113C0.414,-0.148 0.428,-0.195 0.428,-0.255L0.428,-0.275L0.314,-0.275C0.263,-0.275 0.223,-0.266 0.196,-0.248C0.17,-0.229 0.156,-0.202 0.156,-0.165C0.156,-0.132 0.166,-0.107 0.186,-0.088C0.195,-0.08 0.207,-0.073 0.22,-0.068C0.234,-0.063 0.25,-0.061 0.269,-0.061Z" style="fill:white;fill-rule:nonzero;"/>
            </g>
            <g transform="matrix(94.0543,0,0,94.0543,1445.59,787.254)">
                <path d="M0.147,-0.547L0.229,-0.547L0.238,-0.44C0.253,-0.478 0.276,-0.508 0.307,-0.529C0.338,-0.55 0.375,-0.56 0.417,-0.56C0.438,-0.56 0.459,-0.557 0.479,-0.552C0.499,-0.546 0.518,-0.538 0.535,-0.526L0.535,-0.434C0.516,-0.449 0.497,-0.46 0.476,-0.467C0.456,-0.474 0.434,-0.477 0.41,-0.477C0.355,-0.477 0.312,-0.459 0.282,-0.424C0.253,-0.39 0.238,-0.339 0.238,-0.272L0.238,-0L0.147,-0L0.147,-0.547Z" style="fill:white;fill-rule:nonzero;"/>
            </g>
            <g transform="matrix(94.0543,0,0,94.0543,1502.22,787.254)">
                <path d="M0.394,0.002C0.327,0.002 0.279,-0.012 0.251,-0.039C0.224,-0.065 0.21,-0.112 0.21,-0.178L0.21,-0.477L0.064,-0.477L0.064,-0.547L0.21,-0.547L0.21,-0.69L0.3,-0.729L0.3,-0.547L0.504,-0.547L0.504,-0.477L0.3,-0.477L0.3,-0.178C0.3,-0.138 0.307,-0.11 0.323,-0.094C0.338,-0.078 0.364,-0.07 0.403,-0.07L0.504,-0.07L0.504,0.002L0.394,0.002Z" style="fill:white;fill-rule:nonzero;"/>
            </g>
            <g transform="matrix(94.0543,0,0,94.0543,1558.85,787.254)">
                <path d="M0.147,-0.547L0.229,-0.547L0.238,-0.44C0.253,-0.478 0.276,-0.508 0.307,-0.529C0.338,-0.55 0.375,-0.56 0.417,-0.56C0.438,-0.56 0.459,-0.557 0.479,-0.552C0.499,-0.546 0.518,-0.538 0.535,-0.526L0.535,-0.434C0.516,-0.449 0.497,-0.46 0.476,-0.467C0.456,-0.474 0.434,-0.477 0.41,-0.477C0.355,-0.477 0.312,-0.459 0.282,-0.424C0.253,-0.39 0.238,-0.339 0.238,-0.272L0.238,-0L0.147,-0L0.147,-0.547Z" style="fill:white;fill-rule:nonzero;"/>
            </g>
            <g transform="matrix(94.0543,0,0,94.0543,1615.47,787.254)">
                <path d="M0.331,0.014C0.246,0.014 0.18,-0.011 0.132,-0.062C0.084,-0.113 0.061,-0.183 0.061,-0.272C0.061,-0.318 0.067,-0.359 0.079,-0.393C0.091,-0.428 0.109,-0.458 0.13,-0.482C0.154,-0.508 0.182,-0.528 0.214,-0.541C0.246,-0.554 0.28,-0.56 0.317,-0.56C0.388,-0.56 0.444,-0.537 0.484,-0.49C0.524,-0.443 0.543,-0.379 0.543,-0.296L0.543,-0.252L0.154,-0.252L0.154,-0.249C0.154,-0.19 0.17,-0.144 0.201,-0.111C0.216,-0.095 0.234,-0.083 0.256,-0.075C0.277,-0.066 0.302,-0.062 0.332,-0.062C0.362,-0.062 0.392,-0.067 0.422,-0.076C0.438,-0.08 0.455,-0.086 0.471,-0.093C0.488,-0.1 0.505,-0.108 0.522,-0.117L0.522,-0.028C0.489,-0.014 0.456,-0.004 0.424,0.004C0.408,0.007 0.393,0.01 0.377,0.012C0.361,0.013 0.346,0.014 0.331,0.014ZM0.454,-0.322C0.453,-0.35 0.449,-0.374 0.443,-0.394C0.436,-0.414 0.427,-0.431 0.417,-0.443C0.393,-0.47 0.359,-0.484 0.315,-0.484C0.271,-0.484 0.235,-0.47 0.208,-0.441C0.18,-0.412 0.163,-0.373 0.158,-0.322L0.454,-0.322Z" style="fill:white;fill-rule:nonzero;"/>
            </g>
            <g transform="matrix(94.0543,0,0,94.0543,1672.1,787.254)">
                <path d="M0.261,0.014C0.205,0.014 0.164,-0.004 0.136,-0.041C0.109,-0.077 0.095,-0.133 0.095,-0.207L0.095,-0.546L0.185,-0.546L0.185,-0.207C0.185,-0.158 0.194,-0.121 0.211,-0.099C0.22,-0.088 0.231,-0.079 0.243,-0.073C0.256,-0.067 0.272,-0.064 0.292,-0.064C0.334,-0.064 0.367,-0.079 0.389,-0.109C0.412,-0.139 0.423,-0.181 0.423,-0.237L0.423,-0.546L0.513,-0.546L0.513,-0L0.432,-0L0.423,-0.082C0.407,-0.05 0.385,-0.027 0.358,-0.01C0.33,0.006 0.298,0.014 0.261,0.014Z" style="fill:white;fill-rule:nonzero;"/>
            </g>
            <g transform="matrix(94.0543,0,0,94.0543,1728.72,787.254)">
                <path d="M0.288,0.014C0.258,0.014 0.229,0.011 0.2,0.006C0.188,0.003 0.173,-0 0.156,-0.005C0.138,-0.009 0.121,-0.014 0.104,-0.02L0.104,-0.113C0.125,-0.102 0.143,-0.094 0.157,-0.089C0.172,-0.083 0.186,-0.078 0.2,-0.074C0.215,-0.07 0.23,-0.067 0.244,-0.064C0.258,-0.062 0.272,-0.061 0.287,-0.061C0.326,-0.061 0.357,-0.069 0.379,-0.085C0.391,-0.094 0.399,-0.104 0.404,-0.115C0.41,-0.127 0.412,-0.138 0.412,-0.15C0.412,-0.173 0.403,-0.191 0.383,-0.205C0.364,-0.219 0.334,-0.231 0.292,-0.239L0.289,-0.24L0.255,-0.247C0.23,-0.252 0.209,-0.258 0.19,-0.267C0.171,-0.275 0.155,-0.285 0.142,-0.298C0.118,-0.322 0.106,-0.355 0.106,-0.396C0.106,-0.449 0.124,-0.49 0.159,-0.518C0.178,-0.533 0.2,-0.543 0.226,-0.55C0.251,-0.557 0.28,-0.56 0.312,-0.56C0.341,-0.56 0.369,-0.557 0.396,-0.552C0.408,-0.55 0.421,-0.546 0.434,-0.542C0.448,-0.538 0.461,-0.533 0.475,-0.528L0.475,-0.44C0.449,-0.455 0.424,-0.466 0.397,-0.474C0.371,-0.481 0.344,-0.485 0.316,-0.485C0.277,-0.485 0.247,-0.478 0.227,-0.465C0.207,-0.452 0.197,-0.432 0.197,-0.404C0.199,-0.392 0.201,-0.381 0.203,-0.373C0.205,-0.364 0.211,-0.357 0.219,-0.35C0.226,-0.344 0.239,-0.338 0.257,-0.333C0.274,-0.327 0.299,-0.321 0.331,-0.315L0.367,-0.308C0.413,-0.299 0.447,-0.282 0.469,-0.257C0.492,-0.233 0.503,-0.199 0.503,-0.158C0.503,-0.13 0.498,-0.105 0.488,-0.085C0.478,-0.064 0.464,-0.046 0.445,-0.032C0.425,-0.016 0.402,-0.005 0.376,0.003C0.349,0.01 0.32,0.014 0.288,0.014Z" style="fill:white;fill-rule:nonzero;"/>
            </g>
            <g transform="matrix(94.0543,0,0,94.0543,1785.35,787.254)">
                <path d="M0.331,0.014C0.246,0.014 0.18,-0.011 0.132,-0.062C0.084,-0.113 0.061,-0.183 0.061,-0.272C0.061,-0.318 0.067,-0.359 0.079,-0.393C0.091,-0.428 0.109,-0.458 0.13,-0.482C0.154,-0.508 0.182,-0.528 0.214,-0.541C0.246,-0.554 0.28,-0.56 0.317,-0.56C0.388,-0.56 0.444,-0.537 0.484,-0.49C0.524,-0.443 0.543,-0.379 0.543,-0.296L0.543,-0.252L0.154,-0.252L0.154,-0.249C0.154,-0.19 0.17,-0.144 0.201,-0.111C0.216,-0.095 0.234,-0.083 0.256,-0.075C0.277,-0.066 0.302,-0.062 0.332,-0.062C0.362,-0.062 0.392,-0.067 0.422,-0.076C0.438,-0.08 0.455,-0.086 0.471,-0.093C0.488,-0.1 0.505,-0.108 0.522,-0.117L0.522,-0.028C0.489,-0.014 0.456,-0.004 0.424,0.004C0.408,0.007 0.393,0.01 0.377,0.012C0.361,0.013 0.346,0.014 0.331,0.014ZM0.454,-0.322C0.453,-0.35 0.449,-0.374 0.443,-0.394C0.436,-0.414 0.427,-0.431 0.417,-0.443C0.393,-0.47 0.359,-0.484 0.315,-0.484C0.271,-0.484 0.235,-0.47 0.208,-0.441C0.18,-0.412 0.163,-0.373 0.158,-0.322L0.454,-0.322Z" style="fill:white;fill-rule:nonzero;"/>
            </g>
        </g>
    </g>
</svg>
